<svg id="svg" version="1.1" width="400" height="400" viewBox="0 0 400 400" xmlns="http://www.w3.org/2000/svg" xmlns:xlink="http://www.w3.org/1999/xlink" ><g id="svgg"><path id="path0" d="M90.000 8.252 C 88.975 8.438,88.294 8.686,86.200 9.639 C 85.042 10.166,80.400 14.498,80.400 15.053 C 80.400 15.202,79.950 15.914,79.400 16.636 C 78.850 17.357,78.400 18.124,78.400 18.340 C 78.400 18.556,78.261 18.793,78.092 18.867 C 77.756 19.012,70.400 29.456,70.400 29.788 C 70.400 29.969,69.806 30.750,68.600 32.155 C 66.770 34.289,66.083 35.697,67.055 35.324 C 67.508 35.150,67.646 35.246,67.505 35.636 C 67.392 35.946,67.088 36.152,66.829 36.093 C 66.569 36.034,66.142 36.217,65.879 36.500 C 64.752 37.710,61.600 42.032,61.600 42.367 C 61.600 42.569,61.444 42.793,61.254 42.867 C 61.064 42.940,60.062 44.325,59.028 45.945 C 57.994 47.564,56.802 49.261,56.379 49.715 C 55.955 50.169,55.505 50.869,55.378 51.271 C 55.250 51.672,54.978 52.000,54.773 52.000 C 54.568 52.000,54.400 52.294,54.400 52.653 C 54.400 53.012,54.079 53.597,53.688 53.953 C 52.723 54.829,50.000 58.704,50.000 59.201 C 50.000 59.420,49.820 59.600,49.600 59.600 C 49.380 59.600,49.200 59.788,49.200 60.017 C 49.200 60.247,48.767 60.902,48.238 61.472 C 47.710 62.042,47.035 62.979,46.739 63.554 C 46.443 64.129,46.105 64.690,45.987 64.800 C 45.028 65.695,42.000 70.509,42.000 71.138 C 42.000 71.576,41.791 72.003,41.535 72.088 C 40.869 72.310,40.888 79.053,41.560 80.808 C 42.190 82.454,48.500 95.310,48.821 95.600 C 48.942 95.710,49.365 96.520,49.761 97.400 C 50.157 98.280,52.015 102.060,53.891 105.800 C 55.767 109.540,57.646 113.320,58.065 114.200 C 58.485 115.080,58.995 116.070,59.198 116.400 C 59.401 116.730,60.041 117.990,60.619 119.200 C 61.197 120.410,61.859 121.753,62.091 122.185 C 63.981 125.703,64.400 126.588,64.400 127.060 C 64.400 127.357,64.580 127.600,64.800 127.600 C 65.020 127.600,65.200 127.870,65.200 128.200 C 65.200 128.530,65.380 128.800,65.600 128.800 C 65.820 128.800,66.000 129.077,66.000 129.415 C 66.000 130.117,69.643 137.330,70.100 137.533 C 70.265 137.607,70.400 137.872,70.400 138.123 C 70.400 138.730,73.308 144.563,73.696 144.733 C 73.863 144.807,74.000 145.071,74.000 145.322 C 74.000 145.802,77.609 153.258,78.007 153.600 C 78.135 153.710,78.729 154.880,79.327 156.200 C 79.925 157.520,80.678 159.050,80.999 159.600 C 81.321 160.150,83.126 163.750,85.010 167.600 C 86.894 171.450,88.701 175.050,89.027 175.600 C 89.353 176.150,90.367 178.175,91.281 180.100 C 92.194 182.025,93.090 183.600,93.271 183.600 C 93.452 183.600,93.600 183.817,93.600 184.082 C 93.600 184.715,100.091 197.760,100.491 197.933 C 100.661 198.007,100.800 198.412,100.800 198.833 C 100.800 199.255,100.936 199.600,101.102 199.600 C 101.269 199.600,101.647 200.185,101.942 200.900 C 102.238 201.615,103.092 203.443,103.840 204.963 C 104.588 206.483,105.200 207.953,105.200 208.230 C 105.200 208.507,105.343 208.793,105.518 208.867 C 105.693 208.940,108.398 214.130,111.530 220.400 C 114.661 226.670,117.472 232.250,117.776 232.800 C 118.080 233.350,118.839 234.880,119.464 236.200 C 120.089 237.520,120.735 238.660,120.900 238.733 C 121.065 238.807,121.200 239.066,121.200 239.310 C 121.200 239.904,124.120 245.764,124.500 245.933 C 124.665 246.007,124.804 246.367,124.809 246.733 C 124.814 247.100,125.170 247.850,125.600 248.400 C 126.030 248.950,126.386 249.530,126.391 249.689 C 126.403 250.066,128.494 254.540,128.780 254.800 C 129.157 255.143,132.800 262.682,132.800 263.119 C 132.800 263.347,132.989 263.596,133.219 263.673 C 134.055 263.952,134.381 273.897,134.416 300.200 C 134.453 328.178,134.557 330.677,135.673 330.491 C 136.168 330.408,136.439 330.892,136.775 332.459 C 138.437 340.205,144.486 353.257,149.587 360.100 C 185.133 407.788,257.450 394.014,274.021 336.400 C 274.306 335.410,274.688 334.429,274.870 334.220 C 275.051 334.011,275.215 333.471,275.234 333.020 C 275.259 332.423,275.365 332.521,275.622 333.381 C 275.816 334.031,275.864 335.003,275.729 335.541 C 275.573 336.163,275.633 336.427,275.895 336.265 C 276.121 336.125,276.425 334.973,276.570 333.705 C 276.716 332.437,277.037 330.410,277.284 329.200 C 277.594 327.687,277.745 317.031,277.767 295.086 C 277.789 273.968,277.937 263.075,278.206 262.886 C 278.751 262.503,282.400 255.252,282.400 254.552 C 282.400 254.249,282.580 254.000,282.800 254.000 C 283.020 254.000,283.200 253.655,283.200 253.233 C 283.200 252.812,283.342 252.407,283.516 252.333 C 283.876 252.182,286.000 247.782,286.000 247.189 C 286.000 246.975,286.180 246.800,286.400 246.800 C 286.620 246.800,286.800 246.440,286.800 246.000 C 286.800 245.560,286.980 245.200,287.200 245.200 C 287.420 245.200,287.600 245.030,287.600 244.821 C 287.600 244.248,290.537 238.219,290.891 238.067 C 291.061 237.993,291.200 237.748,291.200 237.522 C 291.200 237.295,293.180 233.134,295.600 228.274 C 298.020 223.415,300.000 219.205,300.000 218.919 C 300.000 218.634,300.135 218.398,300.300 218.395 C 300.465 218.393,300.938 217.628,301.351 216.695 C 302.819 213.380,303.001 212.998,303.209 212.800 C 303.325 212.690,304.281 210.800,305.335 208.600 C 306.388 206.400,307.517 204.150,307.844 203.600 C 308.171 203.050,308.789 201.790,309.219 200.800 C 309.648 199.810,310.208 198.640,310.462 198.200 C 310.717 197.760,311.077 197.085,311.262 196.700 C 311.448 196.315,311.804 195.604,312.053 195.121 C 313.657 192.007,329.005 160.837,330.135 158.400 C 330.390 157.850,330.689 157.310,330.799 157.200 C 330.991 157.009,333.607 151.709,334.551 149.600 C 334.797 149.050,335.098 148.510,335.220 148.400 C 335.342 148.290,335.767 147.480,336.166 146.600 C 336.564 145.720,339.209 140.320,342.045 134.599 C 344.880 128.879,347.200 123.989,347.200 123.733 C 347.200 123.476,347.342 123.207,347.515 123.133 C 347.688 123.060,348.333 121.920,348.949 120.600 C 351.181 115.813,351.805 114.598,352.100 114.467 C 352.265 114.393,352.400 113.988,352.400 113.567 C 352.400 113.145,352.580 112.800,352.800 112.800 C 353.020 112.800,353.200 112.625,353.200 112.411 C 353.200 111.933,355.263 107.477,355.612 107.200 C 355.751 107.090,356.300 106.015,356.832 104.811 C 357.364 103.607,359.645 98.954,361.900 94.470 C 364.155 89.987,366.000 86.067,366.000 85.759 C 366.000 85.452,366.136 85.200,366.302 85.200 C 366.469 85.200,366.856 84.615,367.164 83.900 C 367.471 83.185,368.100 81.790,368.562 80.800 C 370.344 76.973,369.401 69.942,366.714 67.025 C 366.321 66.598,366.000 66.056,366.000 65.820 C 366.000 65.585,365.550 64.907,365.000 64.313 C 364.450 63.720,364.000 63.143,364.000 63.031 C 364.000 62.745,359.543 55.843,359.201 55.600 C 358.906 55.391,357.127 52.748,355.858 50.635 C 355.450 49.956,354.955 49.340,354.758 49.267 C 354.561 49.193,354.400 48.947,354.400 48.720 C 354.400 48.493,353.770 47.449,353.000 46.400 C 352.230 45.351,351.600 44.332,351.600 44.135 C 351.600 43.938,351.240 43.517,350.800 43.200 C 350.360 42.883,350.000 42.407,350.000 42.142 C 350.000 41.878,349.550 41.127,349.000 40.473 C 348.450 39.819,348.000 39.154,348.000 38.995 C 348.000 38.835,347.010 37.292,345.800 35.565 C 344.590 33.839,343.600 32.311,343.600 32.171 C 343.600 32.030,343.195 31.406,342.700 30.783 C 340.599 28.138,339.200 26.091,339.200 25.661 C 339.200 25.407,339.050 25.200,338.868 25.200 C 338.685 25.200,338.280 24.705,337.969 24.100 C 331.978 12.466,320.770 9.793,312.001 17.908 C 311.590 18.289,310.567 18.956,309.727 19.392 C 307.676 20.455,302.633 23.725,302.467 24.100 C 302.393 24.265,302.167 24.400,301.963 24.400 C 301.476 24.400,294.639 28.841,294.467 29.269 C 294.393 29.451,294.078 29.600,293.767 29.600 C 293.455 29.600,293.200 29.780,293.200 30.000 C 293.200 30.220,292.975 30.401,292.700 30.402 C 292.425 30.403,290.400 31.581,288.200 33.020 C 286.000 34.459,283.345 36.106,282.300 36.682 C 281.255 37.257,280.400 37.879,280.400 38.064 C 280.400 38.249,280.152 38.400,279.849 38.400 C 279.546 38.400,279.098 38.640,278.855 38.934 C 278.611 39.228,277.599 39.886,276.606 40.397 C 275.613 40.908,274.800 41.477,274.800 41.663 C 274.800 41.848,274.616 42.000,274.391 42.000 C 273.915 42.000,270.953 43.881,269.825 44.900 C 269.398 45.285,268.890 45.600,268.695 45.600 C 268.291 45.600,262.706 49.147,262.400 49.598 C 261.647 50.706,260.396 50.355,258.177 48.414 C 256.911 47.306,255.722 46.400,255.534 46.400 C 255.346 46.400,254.609 45.838,253.896 45.151 C 253.183 44.464,252.150 43.609,251.600 43.251 C 250.635 42.623,250.243 42.301,247.200 39.638 C 246.430 38.964,245.666 38.410,245.503 38.406 C 245.340 38.403,244.800 38.051,244.303 37.624 C 243.806 37.198,243.019 36.523,242.553 36.124 C 242.088 35.726,241.110 34.950,240.380 34.400 C 239.650 33.850,238.068 32.545,236.865 31.500 C 235.661 30.455,234.434 29.600,234.138 29.600 C 233.842 29.600,233.600 29.441,233.600 29.247 C 233.600 28.722,230.789 26.677,230.485 26.981 C 230.341 27.126,230.488 27.427,230.812 27.652 C 231.326 28.009,231.324 28.040,230.800 27.896 C 230.470 27.805,230.198 27.444,230.195 27.094 C 230.190 26.484,229.133 25.403,226.665 23.483 C 226.041 22.997,225.289 22.375,224.994 22.100 C 224.699 21.825,224.342 21.600,224.202 21.600 C 224.061 21.600,223.284 20.972,222.473 20.203 C 220.860 18.675,220.286 18.438,220.681 19.466 C 220.859 19.930,220.786 20.039,220.441 19.825 C 220.168 19.657,220.032 19.294,220.138 19.018 C 220.356 18.448,219.850 17.977,215.400 14.616 C 211.116 11.381,208.046 10.015,205.030 10.004 C 203.347 9.998,197.938 11.949,197.163 12.842 C 196.802 13.259,196.385 13.600,196.236 13.600 C 196.088 13.600,195.749 13.783,195.483 14.007 C 195.217 14.231,194.550 14.784,194.000 15.236 C 193.450 15.687,192.548 16.449,191.995 16.928 C 191.442 17.408,190.257 18.298,189.362 18.908 C 188.467 19.517,187.221 20.552,186.593 21.208 C 185.964 21.863,185.242 22.400,184.987 22.400 C 184.732 22.400,184.181 22.784,183.762 23.253 C 183.343 23.723,182.100 24.780,181.000 25.602 C 179.900 26.425,178.528 27.526,177.952 28.049 C 176.735 29.153,175.983 29.755,173.792 31.382 C 172.916 32.032,171.965 32.887,171.677 33.282 C 171.390 33.677,170.986 34.000,170.780 34.000 C 170.393 34.000,168.952 35.121,167.286 36.718 C 166.759 37.222,165.670 38.055,164.864 38.568 C 164.059 39.080,162.856 40.018,162.191 40.650 C 161.526 41.283,160.266 42.331,159.391 42.979 C 158.516 43.628,157.530 44.449,157.200 44.805 C 156.870 45.160,155.790 46.011,154.800 46.696 C 153.810 47.381,152.513 48.405,151.917 48.971 C 150.811 50.023,150.170 50.251,149.933 49.677 C 149.860 49.499,148.944 48.769,147.897 48.055 C 146.850 47.341,145.589 46.362,145.094 45.879 C 144.103 44.911,140.674 42.224,137.468 39.903 C 136.331 39.080,134.856 37.910,134.190 37.303 C 133.525 36.697,132.535 35.904,131.990 35.542 C 131.446 35.180,130.640 34.550,130.200 34.142 C 129.759 33.734,128.679 32.870,127.800 32.221 C 126.920 31.573,126.110 30.931,126.000 30.794 C 125.890 30.657,124.810 29.782,123.600 28.849 C 122.390 27.916,120.770 26.634,120.000 26.001 C 119.230 25.369,117.790 24.211,116.800 23.429 C 112.881 20.333,109.069 17.345,107.671 16.272 C 106.862 15.651,105.572 14.573,104.805 13.875 C 103.269 12.479,100.337 10.400,98.257 9.232 C 96.906 8.473,91.999 7.891,90.000 8.252 M342.834 32.179 C 343.035 32.055,343.200 32.255,343.200 32.625 C 343.200 33.178,343.093 33.209,342.600 32.800 C 342.270 32.526,342.014 32.099,342.032 31.851 C 342.051 31.570,342.140 31.589,342.266 31.902 C 342.377 32.179,342.633 32.303,342.834 32.179 M101.800 42.849 C 131.150 66.131,139.927 73.158,140.192 73.588 C 140.433 73.976,145.468 103.985,154.188 157.000 C 156.287 169.760,158.362 182.270,158.800 184.800 C 159.239 187.330,161.038 198.220,162.800 209.000 C 164.561 219.780,166.178 229.500,166.393 230.600 C 168.485 241.315,169.460 249.580,168.720 250.320 C 167.725 251.315,155.416 250.958,154.267 249.900 C 153.727 249.403,142.231 226.970,128.592 199.800 C 115.008 172.740,95.728 134.376,85.747 114.546 C 75.766 94.716,67.600 78.053,67.600 77.517 C 67.600 76.981,68.528 75.205,69.662 73.571 C 70.796 71.937,72.821 69.031,74.162 67.113 C 80.080 58.649,89.980 44.382,91.918 41.523 C 94.793 37.282,94.781 37.280,101.800 42.849 M206.411 39.079 C 207.599 39.894,224.995 53.629,241.650 66.902 C 248.665 72.492,248.220 71.495,247.018 78.932 C 246.479 82.269,245.481 88.510,244.802 92.800 C 243.048 103.884,242.573 106.855,241.226 115.200 C 240.569 119.270,239.666 124.940,239.219 127.800 C 238.773 130.660,237.585 138.130,236.580 144.400 C 235.574 150.670,234.599 156.790,234.412 158.000 C 232.697 169.089,231.790 174.850,230.792 181.000 C 229.784 187.207,229.049 191.800,226.788 206.000 C 226.560 207.430,225.293 215.440,223.972 223.800 C 219.248 253.698,220.237 250.242,216.304 250.581 C 210.456 251.084,192.888 250.660,192.231 250.000 C 191.700 249.466,188.502 231.183,183.798 201.800 C 183.270 198.500,181.757 189.320,180.437 181.400 C 175.490 151.732,163.790 80.707,163.167 76.564 C 162.518 72.239,162.717 71.683,165.753 69.364 C 167.166 68.284,172.776 63.800,178.220 59.400 C 183.663 55.000,189.152 50.590,190.417 49.600 C 191.682 48.610,195.121 45.899,198.059 43.576 C 205.219 37.913,204.935 38.066,206.411 39.079 M320.890 42.900 C 321.825 43.627,342.739 75.019,343.012 76.104 C 343.181 76.777,340.952 81.614,334.575 94.410 C 329.809 103.974,323.970 115.760,321.600 120.600 C 319.230 125.440,309.690 144.700,300.400 163.400 C 291.110 182.100,281.751 201.000,279.602 205.400 C 270.218 224.614,257.892 249.055,257.274 249.677 C 256.473 250.481,255.512 250.566,248.314 250.472 C 241.575 250.384,241.816 250.641,242.803 244.600 C 243.198 242.180,243.982 237.320,244.546 233.800 C 245.109 230.280,246.021 224.610,246.571 221.200 C 247.593 214.874,249.804 200.989,251.223 192.000 C 251.657 189.250,252.542 183.670,253.190 179.600 C 255.090 167.661,256.404 159.345,257.237 154.000 C 257.665 151.250,258.193 147.920,258.411 146.600 C 258.629 145.280,259.612 139.070,260.597 132.800 C 261.581 126.530,262.567 120.410,262.788 119.200 C 263.009 117.990,263.558 114.570,264.010 111.600 C 264.461 108.630,265.546 101.700,266.421 96.200 C 267.296 90.700,268.381 83.860,268.831 81.000 C 269.281 78.140,269.850 75.280,270.096 74.644 C 270.565 73.433,272.750 71.916,286.400 63.324 C 288.490 62.008,296.320 57.003,303.800 52.201 C 320.716 41.342,319.640 41.928,320.890 42.900 M251.815 273.612 C 252.715 274.359,252.682 295.268,251.779 296.017 C 250.636 296.966,160.423 297.120,159.732 296.175 C 158.959 295.118,158.958 274.699,159.731 274.058 C 160.387 273.513,165.394 273.439,213.715 273.263 C 242.716 273.158,251.362 273.237,251.815 273.612 M252.620 320.175 C 254.926 323.694,249.259 340.191,242.980 348.237 C 216.348 382.369,163.571 366.975,158.991 323.739 C 158.474 318.854,152.585 319.382,208.691 319.279 L 251.982 319.200 252.620 320.175 M275.492 337.042 C 275.331 337.202,275.200 337.609,275.200 337.947 C 275.200 338.397,275.318 338.442,275.645 338.115 C 275.890 337.870,276.021 337.463,275.937 337.210 C 275.852 336.957,275.652 336.881,275.492 337.042 " stroke="none" fill="#000000" fill-rule="evenodd"></path><path id="path1" d="M342.032 31.851 C 342.014 32.099,342.270 32.526,342.600 32.800 C 343.093 33.209,343.200 33.178,343.200 32.625 C 343.200 32.255,343.035 32.055,342.834 32.179 C 342.633 32.303,342.377 32.179,342.266 31.902 C 342.140 31.589,342.051 31.570,342.032 31.851 M66.466 35.550 C 66.032 35.826,66.043 35.931,66.527 36.117 C 67.146 36.354,67.600 36.107,67.600 35.533 C 67.600 35.110,67.150 35.117,66.466 35.550 M91.918 41.523 C 89.980 44.382,80.080 58.649,74.162 67.113 C 72.821 69.031,70.796 71.937,69.662 73.571 C 68.528 75.205,67.600 76.981,67.600 77.517 C 67.600 78.053,75.766 94.716,85.747 114.546 C 95.728 134.376,115.008 172.740,128.592 199.800 C 142.231 226.970,153.727 249.403,154.267 249.900 C 155.416 250.958,167.725 251.315,168.720 250.320 C 169.460 249.580,168.485 241.315,166.393 230.600 C 166.178 229.500,164.561 219.780,162.800 209.000 C 161.038 198.220,159.239 187.330,158.800 184.800 C 158.362 182.270,156.287 169.760,154.188 157.000 C 145.468 103.985,140.433 73.976,140.192 73.588 C 139.927 73.158,131.150 66.131,101.800 42.849 C 94.781 37.280,94.793 37.282,91.918 41.523 M204.200 38.888 C 203.760 39.143,200.996 41.252,198.059 43.576 C 195.121 45.899,191.682 48.610,190.417 49.600 C 189.152 50.590,183.663 55.000,178.220 59.400 C 172.776 63.800,167.166 68.284,165.753 69.364 C 162.717 71.683,162.518 72.239,163.167 76.564 C 163.790 80.707,175.490 151.732,180.437 181.400 C 181.757 189.320,183.270 198.500,183.798 201.800 C 188.502 231.183,191.700 249.466,192.231 250.000 C 192.888 250.660,210.456 251.084,216.304 250.581 C 220.237 250.242,219.248 253.698,223.972 223.800 C 225.293 215.440,226.560 207.430,226.788 206.000 C 229.049 191.800,229.784 187.207,230.792 181.000 C 231.790 174.850,232.697 169.089,234.412 158.000 C 234.599 156.790,235.574 150.670,236.580 144.400 C 237.585 138.130,238.773 130.660,239.219 127.800 C 239.666 124.940,240.569 119.270,241.226 115.200 C 242.573 106.855,243.048 103.884,244.802 92.800 C 245.481 88.510,246.479 82.269,247.018 78.932 C 248.220 71.495,248.665 72.492,241.650 66.902 C 224.995 53.629,207.599 39.894,206.411 39.079 C 205.254 38.285,205.242 38.284,204.200 38.888 M103.622 45.784 C 107.900 49.185,113.290 53.475,115.600 55.318 C 117.910 57.160,124.152 62.123,129.471 66.346 C 136.872 72.222,139.195 74.279,139.371 75.112 C 139.608 76.241,142.052 90.922,149.604 136.600 C 161.675 209.612,166.483 238.645,167.266 243.249 C 167.738 246.026,168.012 248.591,167.875 248.949 C 167.549 249.799,155.564 249.939,154.905 249.100 C 154.689 248.825,146.543 232.760,136.802 213.400 C 127.062 194.040,113.289 166.680,106.197 152.600 C 72.359 85.430,68.672 77.921,69.046 76.925 C 69.381 76.031,73.686 69.754,87.328 50.268 C 90.588 45.610,93.518 41.305,93.838 40.700 C 94.774 38.933,95.442 39.280,103.622 45.784 M213.073 45.917 C 217.213 49.171,224.200 54.694,228.600 58.190 C 248.893 74.313,246.721 72.080,246.076 76.154 C 245.828 77.719,244.361 87.010,242.816 96.800 C 241.270 106.590,239.644 116.760,239.203 119.400 C 238.761 122.040,237.133 132.210,235.585 142.000 C 234.037 151.790,232.329 162.590,231.790 166.000 C 231.250 169.410,230.172 176.160,229.394 181.000 C 228.616 185.840,227.811 190.970,227.604 192.400 C 227.266 194.743,224.787 210.300,222.218 226.200 C 221.685 229.500,220.673 235.830,219.969 240.266 C 219.265 244.702,218.573 248.521,218.430 248.751 C 218.162 249.185,193.964 249.472,193.280 249.050 C 192.874 248.799,193.312 251.303,187.023 213.200 C 184.282 196.590,180.686 174.810,179.033 164.800 C 177.380 154.790,175.384 142.640,174.598 137.800 C 173.812 132.960,171.106 116.545,168.584 101.323 C 166.063 86.101,164.000 73.389,164.000 73.074 C 164.000 72.759,165.215 71.527,166.700 70.335 C 168.185 69.143,175.430 63.322,182.800 57.401 C 204.116 40.274,204.466 40.000,205.020 40.000 C 205.310 40.000,208.934 42.663,213.073 45.917 M318.400 42.938 C 317.850 43.231,311.280 47.400,303.800 52.201 C 296.320 57.003,288.490 62.008,286.400 63.324 C 272.750 71.916,270.565 73.433,270.096 74.644 C 269.850 75.280,269.281 78.140,268.831 81.000 C 268.381 83.860,267.296 90.700,266.421 96.200 C 265.546 101.700,264.461 108.630,264.010 111.600 C 263.558 114.570,263.009 117.990,262.788 119.200 C 262.567 120.410,261.581 126.530,260.597 132.800 C 259.612 139.070,258.629 145.280,258.411 146.600 C 258.193 147.920,257.665 151.250,257.237 154.000 C 256.404 159.345,255.090 167.661,253.190 179.600 C 252.542 183.670,251.657 189.250,251.223 192.000 C 249.804 200.989,247.593 214.874,246.571 221.200 C 246.021 224.610,245.109 230.280,244.546 233.800 C 243.982 237.320,243.198 242.180,242.803 244.600 C 241.816 250.641,241.575 250.384,248.314 250.472 C 255.512 250.566,256.473 250.481,257.274 249.677 C 257.892 249.055,270.218 224.614,279.602 205.400 C 281.751 201.000,291.110 182.100,300.400 163.400 C 309.690 144.700,319.230 125.440,321.600 120.600 C 323.970 115.760,329.809 103.974,334.575 94.410 C 340.952 81.614,343.181 76.777,343.012 76.104 C 342.739 75.019,321.825 43.627,320.890 42.900 C 320.077 42.268,319.645 42.275,318.400 42.938 M331.601 60.543 C 337.156 68.871,341.697 76.071,341.692 76.543 C 341.685 77.365,337.237 86.466,309.598 142.200 C 288.044 185.662,274.209 213.593,265.359 231.508 C 258.774 244.838,256.601 248.892,255.904 249.147 C 254.643 249.607,244.723 249.690,244.043 249.246 C 243.385 248.817,243.435 248.345,245.443 236.000 C 246.212 231.270,247.816 221.190,249.006 213.600 C 250.197 206.010,251.905 195.210,252.802 189.600 C 254.578 178.489,258.245 155.461,259.808 145.600 C 260.349 142.190,261.699 133.730,262.809 126.800 C 264.915 113.652,268.309 92.184,269.638 83.600 C 270.064 80.850,270.600 77.669,270.828 76.531 L 271.244 74.463 277.722 70.297 C 281.285 68.006,287.530 64.001,291.600 61.398 C 295.670 58.795,300.170 55.909,301.600 54.986 C 309.639 49.798,318.704 44.096,319.213 43.908 C 320.177 43.553,321.070 44.751,331.601 60.543 M201.500 273.500 C 210.355 273.560,224.845 273.560,233.700 273.500 C 242.555 273.440,235.310 273.391,217.600 273.391 C 199.890 273.391,192.645 273.440,201.500 273.500 M251.100 273.612 C 251.963 273.960,252.004 274.190,252.087 279.287 L 252.174 284.600 252.299 279.456 C 252.428 274.170,252.196 273.173,250.851 273.225 C 250.410 273.243,250.491 273.368,251.100 273.612 M159.642 274.149 C 159.320 274.537,159.220 277.791,159.300 285.249 L 159.414 295.800 159.507 285.180 C 159.574 277.562,159.736 274.424,160.080 274.080 C 160.344 273.816,160.456 273.600,160.329 273.600 C 160.202 273.600,159.893 273.847,159.642 274.149 M252.101 286.600 C 252.105 287.480,252.187 287.793,252.283 287.295 C 252.379 286.798,252.375 286.078,252.275 285.695 C 252.175 285.313,252.096 285.720,252.101 286.600 M180.900 296.700 C 188.765 296.760,201.635 296.760,209.500 296.700 C 217.365 296.639,210.930 296.590,195.200 296.590 C 179.470 296.590,173.035 296.639,180.900 296.700 M227.500 296.682 C 227.995 296.778,228.805 296.778,229.300 296.682 C 229.795 296.587,229.390 296.509,228.400 296.509 C 227.410 296.509,227.005 296.587,227.500 296.682 M231.105 296.683 C 231.602 296.779,232.322 296.775,232.705 296.675 C 233.087 296.575,232.680 296.496,231.800 296.501 C 230.920 296.505,230.607 296.587,231.105 296.683 M162.505 319.497 C 158.433 319.691,158.270 320.211,159.646 328.600 C 161.863 342.121,171.414 354.970,184.200 361.633 C 212.891 376.585,247.770 358.095,252.634 325.355 C 253.205 321.516,253.203 321.065,252.620 320.175 L 251.982 319.200 208.691 319.279 C 184.881 319.323,164.097 319.421,162.505 319.497 M250.722 320.575 C 251.822 320.924,251.896 322.987,250.970 327.517 C 242.377 369.535,188.328 379.478,166.484 343.058 C 162.776 336.876,159.163 324.247,160.274 321.352 C 160.447 320.901,164.668 320.788,184.542 320.703 C 197.774 320.646,217.880 320.532,229.222 320.448 C 240.564 320.365,250.239 320.422,250.722 320.575 M135.499 330.700 C 135.263 331.180,135.738 334.932,136.272 336.800 C 136.429 337.350,136.591 337.980,136.633 338.200 C 136.674 338.420,136.742 338.690,136.784 338.800 C 136.898 339.097,137.194 340.488,137.337 341.400 C 137.406 341.840,137.603 342.560,137.775 343.000 C 137.948 343.440,138.718 345.465,139.486 347.500 C 140.254 349.535,141.044 351.200,141.241 351.200 C 141.439 351.200,141.600 351.449,141.600 351.754 C 141.600 352.666,142.751 354.600,143.294 354.602 C 143.572 354.603,143.810 355.053,143.822 355.602 C 143.848 356.750,144.502 358.076,145.036 358.062 C 145.236 358.057,145.347 358.311,145.282 358.626 C 145.218 358.942,145.351 359.200,145.578 359.200 C 146.142 359.200,147.598 360.482,147.609 360.989 C 147.613 361.215,148.243 361.938,149.009 362.596 C 149.774 363.254,150.400 363.927,150.400 364.092 C 150.400 365.802,160.667 374.949,167.600 379.416 C 190.494 394.167,221.619 394.139,244.532 379.346 C 246.109 378.327,247.872 377.113,248.450 376.647 C 249.027 376.181,250.013 375.440,250.641 375.000 C 253.000 373.347,261.982 364.765,262.041 364.107 C 262.056 363.938,262.728 362.919,263.534 361.843 C 264.340 360.767,265.301 359.436,265.669 358.886 C 266.037 358.335,266.487 357.776,266.669 357.643 C 267.164 357.280,268.000 355.683,268.000 355.101 C 268.000 354.821,268.450 354.107,269.000 353.513 C 269.550 352.920,270.000 352.150,270.000 351.801 C 270.000 351.452,270.360 350.780,270.800 350.308 C 271.240 349.836,271.600 349.112,271.600 348.701 C 271.600 348.289,271.752 348.047,271.939 348.162 C 272.354 348.419,274.400 342.509,274.400 341.052 C 274.400 340.473,274.542 340.000,274.715 340.000 C 274.888 340.000,275.073 339.435,275.125 338.745 C 275.178 338.054,275.335 337.305,275.475 337.079 C 275.880 336.424,275.940 334.424,275.591 333.266 C 275.333 332.414,275.262 332.365,275.234 333.020 C 275.215 333.471,275.051 334.011,274.870 334.220 C 274.688 334.429,274.306 335.410,274.021 336.400 C 257.450 394.014,185.133 407.788,149.587 360.100 C 144.489 353.261,138.437 340.205,136.777 332.468 C 136.374 330.588,135.887 329.913,135.499 330.700 " stroke="none" fill="#5a5b5c" fill-rule="evenodd"></path><path id="path2" d="M205.239 273.502 C 173.118 273.575,160.527 273.728,160.139 274.051 C 159.711 274.405,159.600 276.724,159.600 285.259 L 159.600 296.020 160.500 296.354 C 160.995 296.538,162.660 296.649,164.200 296.602 C 165.740 296.554,185.932 296.490,209.071 296.458 C 246.284 296.407,251.214 296.329,251.756 295.787 C 252.387 295.156,252.294 274.576,251.657 273.945 C 251.131 273.424,248.873 273.402,205.239 273.502 " stroke="none" fill="#f44336" fill-rule="evenodd"></path><path id="path3" d="" stroke="none" fill="#55ffff" fill-rule="evenodd"></path><path id="path4" d="M93.838 40.700 C 93.518 41.305,90.588 45.610,87.328 50.268 C 73.686 69.754,69.381 76.031,69.046 76.925 C 68.672 77.921,72.359 85.430,106.197 152.600 C 113.289 166.680,127.062 194.040,136.802 213.400 C 146.543 232.760,154.689 248.825,154.905 249.100 C 155.564 249.939,167.549 249.799,167.875 248.949 C 168.012 248.591,167.738 246.026,167.266 243.249 C 166.483 238.645,161.675 209.612,149.604 136.600 C 142.052 90.922,139.608 76.241,139.371 75.112 C 139.195 74.279,136.872 72.222,129.471 66.346 C 124.152 62.123,117.910 57.160,115.600 55.318 C 93.892 38.001,94.906 38.682,93.838 40.700 M200.346 43.317 C 198.066 45.142,190.170 51.479,182.800 57.401 C 175.430 63.322,168.185 69.143,166.700 70.335 C 165.215 71.527,164.000 72.759,164.000 73.074 C 164.000 73.389,166.063 86.101,168.584 101.323 C 171.106 116.545,173.812 132.960,174.598 137.800 C 175.384 142.640,177.380 154.790,179.033 164.800 C 180.686 174.810,184.282 196.590,187.023 213.200 C 193.312 251.303,192.874 248.799,193.280 249.050 C 193.964 249.472,218.162 249.185,218.430 248.751 C 218.573 248.521,219.265 244.702,219.969 240.266 C 220.673 235.830,221.685 229.500,222.218 226.200 C 224.787 210.300,227.266 194.743,227.604 192.400 C 227.811 190.970,228.616 185.840,229.394 181.000 C 230.172 176.160,231.250 169.410,231.790 166.000 C 232.329 162.590,234.037 151.790,235.585 142.000 C 237.133 132.210,238.761 122.040,239.203 119.400 C 239.644 116.760,241.270 106.590,242.816 96.800 C 244.361 87.010,245.828 77.719,246.076 76.154 C 246.721 72.080,248.893 74.313,228.600 58.190 C 211.634 44.710,205.528 40.000,205.020 40.000 C 204.730 40.000,202.627 41.493,200.346 43.317 M319.213 43.908 C 318.704 44.096,309.639 49.798,301.600 54.986 C 300.170 55.909,295.670 58.795,291.600 61.398 C 287.530 64.001,281.285 68.006,277.722 70.297 L 271.244 74.463 270.828 76.531 C 270.600 77.669,270.064 80.850,269.638 83.600 C 268.309 92.184,264.915 113.652,262.809 126.800 C 261.699 133.730,260.349 142.190,259.808 145.600 C 258.245 155.461,254.578 178.489,252.802 189.600 C 251.905 195.210,250.197 206.010,249.006 213.600 C 247.816 221.190,246.212 231.270,245.443 236.000 C 243.435 248.345,243.385 248.817,244.043 249.246 C 244.723 249.690,254.643 249.607,255.904 249.147 C 256.601 248.892,258.774 244.838,265.359 231.508 C 274.209 213.593,288.044 185.662,309.598 142.200 C 337.237 86.466,341.685 77.365,341.692 76.543 C 341.700 75.698,322.306 46.206,320.651 44.546 C 320.183 44.076,319.536 43.789,319.213 43.908 M184.542 320.703 C 164.668 320.788,160.447 320.901,160.274 321.352 C 159.163 324.247,162.776 336.876,166.484 343.058 C 188.328 379.478,242.377 369.535,250.970 327.517 C 251.896 322.987,251.822 320.924,250.722 320.575 C 250.239 320.422,240.564 320.365,229.222 320.448 C 217.880 320.532,197.774 320.646,184.542 320.703 M270.679 350.417 C 270.305 350.852,270.001 351.522,270.001 351.905 C 270.002 352.355,270.292 352.126,270.823 351.255 C 271.762 349.714,271.682 349.245,270.679 350.417 M268.700 353.788 C 268.315 354.317,268.000 354.944,268.000 355.181 C 268.000 355.654,267.284 356.978,266.493 357.966 C 261.685 363.978,261.523 364.245,262.310 364.846 C 262.690 365.136,262.883 365.232,262.740 365.060 C 262.597 364.887,263.002 364.212,263.640 363.559 C 264.278 362.907,264.800 362.191,264.800 361.969 C 264.800 361.748,265.160 361.180,265.600 360.708 C 266.040 360.236,266.400 359.534,266.400 359.149 C 266.400 358.764,266.932 357.867,267.581 357.156 C 268.231 356.445,268.670 355.714,268.558 355.531 C 268.445 355.349,268.526 355.200,268.737 355.200 C 268.949 355.200,269.310 354.660,269.540 354.000 C 270.042 352.560,269.662 352.464,268.700 353.788 M142.825 354.925 C 143.487 355.428,144.176 356.778,144.054 357.330 C 144.013 357.511,144.173 357.540,144.410 357.394 C 144.683 357.225,144.702 356.960,144.462 356.664 C 144.255 356.409,144.022 355.857,143.943 355.438 C 143.864 355.019,143.440 354.625,143.000 354.563 C 142.304 354.465,142.281 354.512,142.825 354.925 M146.000 359.832 C 146.000 360.604,148.297 364.000,148.819 364.000 C 149.029 364.000,149.155 364.171,149.100 364.380 C 148.986 364.814,149.188 365.033,156.551 372.489 C 159.533 375.508,162.422 378.091,162.972 378.229 C 163.522 378.367,164.066 378.778,164.182 379.143 C 164.382 379.773,165.349 380.444,166.900 381.029 C 167.285 381.174,167.600 381.452,167.600 381.647 C 167.600 381.841,167.878 382.000,168.217 382.000 C 168.556 382.000,169.220 382.360,169.692 382.800 C 170.164 383.240,170.787 383.600,171.075 383.600 C 171.364 383.600,171.600 383.780,171.600 384.000 C 171.600 384.220,171.782 384.400,172.005 384.400 C 172.228 384.400,173.803 385.047,175.505 385.839 C 177.207 386.630,179.005 387.440,179.500 387.639 C 179.995 387.837,180.805 388.171,181.300 388.380 C 183.049 389.118,186.038 390.000,186.790 390.000 C 187.210 390.000,187.664 390.180,187.800 390.400 C 187.936 390.620,188.721 390.800,189.544 390.800 C 190.367 390.800,191.211 390.963,191.420 391.163 C 191.629 391.363,192.700 391.610,193.800 391.712 C 194.900 391.814,196.233 392.039,196.763 392.212 C 197.532 392.463,197.657 392.413,197.386 391.963 C 197.107 391.500,197.156 391.489,197.665 391.901 C 198.647 392.695,214.400 392.726,214.400 391.933 C 214.400 391.750,214.591 391.600,214.824 391.600 C 215.057 391.600,215.120 391.806,214.964 392.058 C 214.763 392.383,215.018 392.437,215.841 392.245 C 216.478 392.097,217.765 391.867,218.700 391.735 C 219.635 391.604,220.400 391.339,220.400 391.148 C 220.400 390.957,221.099 390.800,221.954 390.800 C 222.809 390.800,224.002 390.544,224.604 390.232 C 225.207 389.919,225.926 389.750,226.202 389.856 C 226.478 389.962,227.491 389.697,228.452 389.268 C 230.942 388.155,231.604 387.903,233.300 387.424 C 233.905 387.253,234.400 386.953,234.400 386.757 C 234.400 386.560,234.673 386.400,235.007 386.400 C 235.724 386.400,239.740 384.375,239.933 383.916 C 240.007 383.742,240.326 383.600,240.642 383.600 C 241.128 383.600,244.170 381.847,244.800 381.203 C 244.910 381.091,245.492 380.745,246.093 380.435 C 246.695 380.126,247.505 379.586,247.894 379.236 C 248.282 378.886,249.314 378.066,250.186 377.414 C 252.201 375.907,253.200 374.908,253.200 374.400 C 253.200 374.180,253.395 374.000,253.633 374.000 C 253.871 374.000,254.875 373.235,255.864 372.300 C 256.854 371.365,258.099 370.187,258.632 369.682 C 259.164 369.177,259.600 368.502,259.600 368.182 C 259.600 367.862,259.881 367.600,260.224 367.600 C 260.567 367.600,260.736 367.420,260.600 367.200 C 260.464 366.980,260.537 366.800,260.762 366.800 C 261.239 366.800,262.162 365.229,261.862 364.929 C 261.750 364.817,260.248 366.137,258.523 367.863 C 254.948 371.440,252.296 373.840,250.641 375.000 C 250.013 375.440,249.027 376.181,248.450 376.647 C 228.914 392.410,197.301 394.869,173.000 382.515 C 164.842 378.368,150.400 366.595,150.400 364.092 C 150.400 363.927,149.774 363.254,149.009 362.596 C 148.243 361.938,147.613 361.215,147.609 360.989 C 147.593 360.240,146.000 359.094,146.000 359.832 " stroke="none" fill="#eceff1" fill-rule="evenodd"></path></g></svg>