<?xml version="1.0" encoding="UTF-8" standalone="no"?>
<svg
   xmlns:dc="http://purl.org/dc/elements/1.1/"
   xmlns:cc="http://creativecommons.org/ns#"
   xmlns:rdf="http://www.w3.org/1999/02/22-rdf-syntax-ns#"
   xmlns:svg="http://www.w3.org/2000/svg"
   xmlns="http://www.w3.org/2000/svg"
   id="svg8"
   version="1.1"
   viewBox="0 0 210 297"
   height="297mm"
   width="210mm">
  <defs
     id="defs2" />
  <metadata
     id="metadata5">
    <rdf:RDF>
      <cc:Work
         rdf:about="">
        <dc:format>image/svg+xml</dc:format>
        <dc:type
           rdf:resource="http://purl.org/dc/dcmitype/StillImage" />
        <dc:title></dc:title>
      </cc:Work>
    </rdf:RDF>
  </metadata>
  <g
     id="layer1">
    <g
       transform="matrix(0.71490151,0,0,0.71490151,-40.493652,-30.600715)"
       id="g3872">
      <path
         id="path3886"
         d="m 181.7333,458.84439 c -0.13304,-0.34671 0.14592,-1.14409 0.6855,-1.95943 0.50041,-0.75618 1.28632,-2.04093 1.74648,-2.855 0.46015,-0.81407 2.59515,-4.57577 4.74444,-8.35931 2.14928,-3.78355 3.90796,-7.14792 3.90816,-7.47635 3.4e-4,-0.53817 -0.71557,-0.60791 -7.24498,-0.70556 -5.97373,-0.0894 -7.30396,-0.20126 -7.57932,-0.63754 -0.18368,-0.29104 -0.33639,-1.51356 -0.33937,-2.71667 -0.011,-4.44179 -1.35066,-7.51389 -3.27672,-7.51389 -0.98113,0 -3.43967,1.35344 -11.89694,6.54939 -8.90008,5.46799 -9.91643,5.96315 -16.202,7.89305 -6.74266,2.07028 -11.77497,2.96817 -16.79298,2.99629 -3.86426,0.0215 -4.39595,-0.0552 -5.96486,-0.86244 -5.06846,-2.6078 -4.34165,-10.03614 2.27768,-23.27906 3.88499,-7.77251 10.27307,-18.26052 17.60769,-28.9085 9.3643,-13.59455 8.67371,-12.4907 11.0473,-17.65817 1.22462,-2.6661 5.2478,-8.20292 14.35484,-19.75556 4.53169,-5.74863 6.87842,-9.64784 7.85575,-13.05278 0.36786,-1.28155 0.46281,-23.75725 0.49271,-116.62392 l 0.037,-115.03642 3.25071,-9.65658 c 9.29103,-27.599916 17.99423,-46.722489 24.09714,-52.945964 2.17084,-2.213728 4.53062,-2.847864 7.3765,-1.982265 4.91241,1.494149 12.34707,15.462257 20.98324,39.422919 1.64344,4.559653 4.08,11.227153 5.41458,14.816667 1.33457,3.589513 2.71249,7.478893 3.06203,8.643053 0.60489,2.01466 0.64444,7.67597 0.82057,117.47501 l 0.18504,115.35834 0.74844,2.17812 c 1.07615,3.13183 2.95455,6.32161 6.03969,10.25615 12.74015,16.2478 14.07149,18.12372 15.43695,21.75143 1.0233,2.71865 2.63983,5.41052 6.61284,11.01183 12.94158,18.2455 22.30789,34.41447 25.52021,44.05525 2.45695,7.37376 1.95381,11.59767 -1.61785,13.58194 -1.47476,0.81933 -1.9257,0.88174 -6.35,0.87912 -5.0933,-0.004 -7.80771,-0.43589 -14.46389,-2.30649 -7.17861,-2.0174 -9.63853,-3.17504 -19.39816,-9.12876 -5.13919,-3.13507 -9.73004,-5.79706 -10.20188,-5.91549 -1.07748,-0.2704 -1.99065,0.76338 -2.50407,2.83489 -0.19984,0.80624 -0.67816,2.26272 -1.06294,3.2366 -0.38479,0.97391 -0.69961,2.294 -0.69961,2.93363 0,2.55929 0.0997,2.52761 -7.94991,2.52761 -3.97075,0 -7.21954,0.0872 -7.21954,0.19393 0,0.49078 8.34619,14.778 10.84687,18.56789 0.56501,0.8563 0.77842,1.54792 0.6259,2.02847 -0.23129,0.72874 -0.24697,0.72916 -27.51019,0.72916 -25.07189,0 -27.29691,-0.0473 -27.50309,-0.58459 z"
         style="fill:#c9c9c9;stroke-width:0.35277778" />
      <path
         id="path3884"
         d="m 181.79464,458.99005 c -0.0805,-0.2414 0.35562,-1.23359 0.96908,-2.20486 2.16611,-3.42953 10.76009,-18.72431 10.76009,-19.14984 0,-0.32564 -1.73494,-0.43137 -7.07874,-0.43137 -4.20493,0 -7.35578,-0.14827 -7.76111,-0.3652 -0.62229,-0.33302 -0.68237,-0.77957 -0.68237,-5.07118 0,-5.70152 -0.19467,-6.91084 -1.11249,-6.91084 -1.08062,0 -4.43741,1.83987 -13.97993,7.66247 -4.92923,3.00768 -9.93963,5.85378 -11.13421,6.32467 -3.61234,1.42395 -9.92963,3.24221 -14.10414,4.05949 -4.58042,0.89676 -11.32176,1.08796 -13.32145,0.37786 -1.54289,-0.5479 -2.91325,-1.96692 -3.44978,-3.57227 -2.23411,-6.68471 5.2191,-22.65712 22.23988,-47.66056 12.10326,-17.77963 15.50582,-22.55393 22.82399,-32.02541 11.53201,-14.9252 11.57104,-14.98493 11.84617,-18.12975 0.19605,-2.24087 -0.0155,-196.0666 -0.24349,-223.07124 l -0.0834,-9.87778 2.89854,-8.53338 c 10.13299,-29.831839 18.13852,-47.558147 24.38501,-53.994724 3.39,-3.493168 6.74645,-3.381386 10.11076,0.336724 6.09138,6.731955 13.36324,23.429009 22.32258,51.25527 l 3.0668,9.525 0.17661,117.32532 0.1766,117.32532 1.49055,2.97191 c 1.02804,2.04971 3.98411,6.20122 9.52638,13.37885 4.4197,5.72382 10.58715,14.13757 13.70545,18.69722 3.1183,4.55966 7.131,10.39287 8.9171,12.96271 13.2732,19.09735 22.62802,36.82073 23.54271,44.60336 0.72468,6.16589 -1.8667,8.75616 -8.7599,8.75616 -5.07871,0 -12.33344,-1.51889 -20.10316,-4.20892 -3.57056,-1.23621 -5.4527,-2.23644 -13.75834,-7.31157 -9.07218,-5.54355 -12.62649,-7.51808 -13.54746,-7.52606 -1.00092,-0.009 -1.25573,1.18421 -1.48411,6.94779 l -0.23478,5.92515 -7.58472,0.17639 c -4.97885,0.11578 -7.56278,0.30282 -7.52086,0.54437 0.0351,0.20235 2.75949,4.86949 6.05415,10.37135 3.29466,5.50185 5.908,10.21785 5.80742,10.47993 -0.25954,0.67638 -54.6501,0.71371 -54.87544,0.0376 z M 213.9724,232.56953 c -0.2595,-0.63129 -0.26053,-1.19878 -0.004,-1.87505 0.5021,-1.32063 0.5161,-101.2365 0.0143,-102.1741 -0.2422,-0.45256 -0.23021,-0.93476 0.0378,-1.5231 0.93712,-2.05676 -1.29607,-25.79771 -2.90108,-30.841233 -1.375,-4.320738 -3.10254,4.051663 -4.92833,23.884793 -0.22247,2.4166 -0.31963,5.21603 -0.21591,6.22096 0.10372,1.00492 0.0524,1.96458 -0.1141,2.13256 -0.16647,0.16799 -0.57123,11.97356 -0.89946,26.23461 -0.48909,21.24944 -0.53825,30.57706 -0.27239,51.68194 0.17842,14.16403 0.21426,25.99291 0.0796,26.28641 -0.13463,0.29349 -0.15532,24.29236 -0.046,53.33083 l 0.19881,52.79721 0.73893,0.19838 c 0.4064,0.10911 2.03924,0.20055 3.62852,0.2032 1.58928,0.003 2.97819,0.14817 3.08648,0.32338 0.10829,0.17522 0.51454,4.63365 0.90277,9.90763 0.38823,5.27398 0.74513,10.09156 0.79311,10.70573 0.048,0.61418 0.12888,-27.61707 0.17979,-62.7361 0.064,-44.17596 -0.0221,-64.13175 -0.27955,-64.75805 z"
         style="fill:#afafaf;stroke-width:0.35277778" />
      <path
         id="path3882"
         d="m 181.88215,458.87519 c 0,-0.30459 0.4506,-1.2174 1.00132,-2.02847 1.12726,-1.66014 10.47188,-18.06935 10.83447,-19.02538 0.20532,-0.54137 -0.0202,-0.62325 -1.83208,-0.66513 -1.13642,-0.0265 -4.60621,-0.14534 -7.71066,-0.26458 l -5.64444,-0.21682 -0.26099,-5.99722 c -0.14355,-3.29847 -0.34235,-6.2096 -0.4418,-6.46921 -0.24732,-0.64558 -4.50342,1.66356 -15.42713,8.37008 -9.50372,5.83473 -11.7768,6.85165 -20.18675,9.03122 -6.2751,1.62627 -9.34231,2.0514 -13.64991,1.89195 -4.15048,-0.15364 -5.5348,-0.70919 -6.94974,-2.78896 -0.75766,-1.11365 -0.81437,-1.4968 -0.67598,-4.56703 0.19323,-4.28646 1.23329,-7.41217 5.04299,-15.15586 5.60741,-11.39776 10.00953,-18.39923 26.54017,-42.21176 2.96344,-4.26886 9.05316,-12.51469 13.53269,-18.32406 4.47954,-5.80937 9.0399,-11.74057 10.13414,-13.18046 l 1.98953,-2.61797 -0.0724,-107.62509 c -0.0398,-59.1938 -0.16364,-112.09452 -0.2752,-117.55717 l -0.20284,-9.93208 3.32184,-9.999866 c 11.99019,-36.094581 22.07875,-55.684585 28.67675,-55.684585 4.47169,0 9.81371,7.697658 16.5254,23.812501 3.94011,9.460255 11.22199,30.739755 13.39523,39.14426 0.48442,1.87338 0.54369,14.86966 0.54369,119.21571 0,116.2038 0.005,117.12425 0.70207,118.54741 0.38614,0.78886 3.35129,4.84742 6.58922,9.01902 9.16128,11.80295 14.0639,18.38359 18.39976,24.69746 2.19738,3.1998 5.59778,8.1197 7.55645,10.9331 15.02795,21.58587 23.71872,38.29734 24.18068,46.49703 0.35668,6.33081 -2.23759,8.04739 -11.21429,7.42022 -3.95431,-0.27626 -7.43271,-0.96908 -13.02525,-2.59433 -6.37092,-1.85141 -8.50209,-2.86568 -17.16529,-8.16945 -13.07451,-8.00439 -15.56893,-9.34053 -15.83416,-8.48152 -0.0729,0.23619 -0.23409,3.27763 -0.35815,6.7587 -0.12406,3.4811 -0.30492,6.45766 -0.4019,6.61458 -0.097,0.15695 -3.50072,0.28533 -7.56385,0.28533 -4.97361,0 -7.38751,0.1223 -7.38751,0.37433 0,0.20591 2.69875,4.87013 5.99722,10.36493 3.29847,5.49483 5.99722,10.24763 5.99722,10.56178 0,0.52147 -2.37917,0.57118 -27.34028,0.57118 -24.60776,0 -27.34027,-0.0554 -27.34027,-0.55379 z m 36.5125,-188.46456 c 0,-170.16152 0.23739,-152.39309 -2.31277,-173.108055 -2.2123,-17.970681 -3.71973,-24.134197 -5.90883,-24.159877 -1.21816,-0.01429 -2.871,5.937955 -4.11284,14.811265 -1.26863,9.06471 -3.77954,32.547397 -3.89362,36.414217 -0.0671,2.27427 -0.19725,4.25865 -0.28922,4.40972 -0.092,0.15107 -0.27094,3.52905 -0.39771,7.50662 -0.12677,3.97757 -0.37913,11.59757 -0.56081,16.93333 -0.51978,15.26527 -0.44202,76.75094 0.0982,77.61591 0.34833,0.55776 0.34833,0.84377 0,1.40153 -0.34573,0.55359 -0.42708,19.76202 -0.38737,91.45765 0.0277,49.91628 0.17899,89.24875 0.33631,87.40548 0.29708,-3.48075 2.4727,-45.78394 3.14783,-61.20695 0.21233,-4.85069 0.45948,-9.17663 0.54921,-9.61319 0.15597,-0.7588 0.31715,-0.79375 3.66044,-0.79375 4.07885,0 3.742,-0.39607 4.05052,4.7625 0.11604,1.94028 0.76595,12.81465 1.44425,24.16528 1.70615,28.55069 3.30604,53.21505 3.54418,54.63833 0.15334,0.91637 0.29593,1.09608 0.6159,0.77607 0.31869,-0.31869 0.41637,-36.30893 0.41637,-153.41608 z"
         style="fill:#8f8f8f;stroke-width:0.35277778" />
      <path
         id="path3880"
         d="m 181.88215,459.08305 c 0,-0.19026 0.53267,-1.18245 1.18373,-2.20487 1.39012,-2.18306 9.31987,-16.01544 10.39416,-18.13122 0.40651,-0.8006 0.64007,-1.55466 0.51903,-1.6757 -0.12104,-0.12104 -3.49561,-0.22006 -7.49905,-0.22006 -5.19106,0 -7.40041,-0.12143 -7.70232,-0.42333 -0.29669,-0.29669 -0.42333,-2.25242 -0.42333,-6.53747 0,-4.72458 -0.10535,-6.15456 -0.46353,-6.292 -0.60762,-0.23315 -4.3182,1.84058 -15.23969,8.51708 -5.91097,3.6135 -9.96314,5.84616 -11.88958,6.5509 -4.30225,1.57392 -10.7113,3.36497 -14.26607,3.98678 -3.65871,0.63997 -10.08469,0.72016 -11.7989,0.14725 -6.56428,-2.19385 -4.35183,-12.45764 6.83366,-31.70199 3.54634,-6.1014 11.44689,-18.23387 17.11454,-26.28194 2.04959,-2.91042 4.8374,-6.87917 6.19514,-8.81945 2.80856,-4.01359 14.01442,-18.79053 19.70533,-25.98502 l 3.81136,-4.81836 -0.17703,-108.42331 c -0.0974,-59.63283 -0.21492,-112.70957 -0.26124,-117.94832 l -0.0842,-9.525 2.58715,-7.76111 c 9.97727,-29.930465 18.2517,-48.296636 24.73013,-54.891757 2.87907,-2.930923 4.22196,-3.350369 6.63244,-2.071615 3.05333,1.61979 5.85549,5.564396 10.14223,14.277257 4.62638,9.403191 9.562,22.548142 15.06496,40.122286 l 2.57024,8.208269 0.17639,118.70973 0.17639,118.70973 4.95462,6.35 c 10.5404,13.50894 15.47069,20.10241 22.02648,29.45694 13.67662,19.51532 19.95637,29.55114 25.27526,40.39306 3.68283,7.50701 5.10347,11.77537 5.16626,15.52222 0.0854,5.09944 -1.88248,6.69527 -8.21012,6.65773 -4.32443,-0.0258 -7.49138,-0.49526 -12.93708,-1.91837 -8.26921,-2.16097 -10.54841,-3.19366 -20.57681,-9.32325 -11.32479,-6.92192 -14.66794,-8.77785 -15.34445,-8.51824 -0.42239,0.1621 -0.53249,1.42378 -0.61108,7.00271 l -0.0959,6.80498 -7.67291,0.0951 c -5.63567,0.0698 -7.67292,0.20634 -7.67292,0.51414 0,0.23047 2.77812,5.05192 6.17361,10.71436 3.39549,5.66243 6.17361,10.47136 6.17361,10.68655 0,0.28314 -7.55614,0.39127 -27.34028,0.39127 -17.63074,0 -27.34027,-0.12284 -27.34027,-0.34593 z m 38.38858,-29.65091 c 0.71186,-0.43402 1.47215,-1.36659 1.94028,-2.37994 l 0.76975,-1.66628 0.1001,-149.93056 c 0.0678,-101.50994 -0.0188,-151.62826 -0.26794,-155.18734 -0.49564,-7.07898 -5.52134,-40.238138 -7.44376,-49.113332 -1.4042,-6.482698 -2.76791,-8.953504 -4.94171,-8.953504 -2.47315,0 -4.10068,3.272889 -5.96456,11.994445 -2.31698,10.841712 -7.57867,41.753961 -8.07641,47.448611 -0.54281,6.2105 -0.56961,13.87204 -0.56961,162.86928 v 141.70263 l 0.73799,0.996 c 0.81817,1.10419 2.82784,2.58349 3.50977,2.58349 1.03187,0 1.02239,0.14821 3.15867,-49.38889 0.89113,-20.66396 1.7024,-38.24552 1.80283,-39.07014 l 0.18258,-1.4993 h 3.14666 c 2.97801,0 3.15571,0.0425 3.31547,0.79375 0.0928,0.43656 1.20957,18.81187 2.48162,40.83403 2.31841,40.13701 2.7728,46.95578 3.20395,48.07934 0.30938,0.8062 1.48188,0.76105 2.91432,-0.11229 z"
         style="fill:#686868;stroke-width:0.35277778" />
      <path
         id="path3878"
         d="m 181.88215,459.15808 c 0,-0.14898 0.42944,-0.90286 0.95432,-1.67527 2.19401,-3.2288 11.41518,-19.72628 11.31557,-20.24454 -0.0945,-0.49195 -1.08146,-0.57552 -7.77659,-0.65853 l -7.6683,-0.0951 -0.005,-5.90214 c -0.005,-6.37294 -0.14733,-7.48965 -0.95324,-7.48965 -0.61488,0 -4.21573,2.09218 -15.88319,9.22845 -7.26832,4.44564 -9.17331,5.44548 -12.7,6.66584 -9.13317,3.16043 -18.83024,4.79073 -23.11437,3.88606 -3.72934,-0.78747 -5.09973,-2.82367 -4.74455,-7.0497 0.59687,-7.10163 7.58965,-21.10662 19.47926,-39.0126 9.99391,-15.05102 21.23896,-30.47493 33.41865,-45.83763 l 4.49357,-5.66793 -0.16149,-108.12639 c -0.0888,-59.46952 -0.25057,-112.44443 -0.35945,-117.72202 l -0.19797,-9.59563 3.04702,-9.27799 c 12.29219,-37.428973 22.98782,-57.965264 29.45004,-56.545923 1.54143,0.338555 4.6586,3.37525 6.85839,6.681337 5.34915,8.03927 12.62693,26.188794 19.43014,48.455405 l 2.61976,8.574351 v 118.3778 118.3778 l 4.34872,5.51591 c 10.60277,13.44857 15.451,19.88817 22.4791,29.85758 13.66579,19.38503 20.70938,30.57313 25.90603,41.14937 5.79698,11.79802 6.63583,18.94184 2.45705,20.92481 -3.18604,1.51186 -10.74518,0.96703 -19.34078,-1.394 -7.79403,-2.14087 -9.58432,-2.97526 -19.9197,-9.28406 -10.27755,-6.27348 -14.75138,-8.8864 -15.2153,-8.8864 -0.55828,0 -0.70557,1.70836 -0.7103,8.23846 l -0.005,6.65095 -7.39258,-0.12266 c -4.7612,-0.079 -7.5218,0.006 -7.75561,0.24035 -0.24885,0.24885 1.63239,3.68374 5.98147,10.92143 3.48948,5.80715 6.3445,10.68324 6.3445,10.83579 0,0.15254 -12.30313,0.27735 -27.34028,0.27735 -15.03715,0 -27.34028,-0.12189 -27.34028,-0.2709 z m 23.63611,-17.4897 c 0,-0.067 -0.35719,-0.42414 -0.79375,-0.79375 l -0.79375,-0.67204 0.67204,0.79375 c 0.63155,0.74591 0.91546,0.95433 0.91546,0.67204 z m 7.80611,-0.49565 c 0.43881,-0.55954 0.42633,-0.572 -0.1332,-0.13321 -0.58764,0.46087 -0.77451,0.75057 -0.48416,0.75057 0.0733,0 0.35106,-0.27781 0.61736,-0.61736 z m -11.71357,-8.0257 c -0.1636,-1.16416 -0.22592,-2.67229 -0.1385,-3.35139 0.0874,-0.67909 0.96047,-20.52284 1.94011,-44.09722 0.97965,-23.57438 1.86395,-43.53719 1.96512,-44.36181 l 0.18396,-1.4993 h 2.81168 c 1.93822,0 2.85591,0.13699 2.95406,0.44097 0.21909,0.67851 5.23738,88.29566 5.22034,91.1448 -0.008,1.38014 -0.1202,2.88826 -0.24876,3.35139 -0.22742,0.81922 -0.21926,0.82292 0.30165,0.13645 0.29447,-0.38805 0.70582,-0.90399 0.91412,-1.14653 0.21242,-0.24733 1.18588,-0.44181 2.21689,-0.44294 2.7282,-0.004 4.28649,-0.56187 5.53695,-1.98607 1.54392,-1.75842 2.51317,-4.52124 2.61241,-7.44654 0.0472,-1.39167 0.60243,-1.65393 0.93819,-0.4432 0.13452,0.48507 0.66552,1.79257 1.18002,2.90555 1.16161,2.51287 2.32036,3.24524 4.21474,2.66383 1.19814,-0.3677 1.27755,-0.48094 1.22779,-1.7508 -0.0376,-0.95959 -0.37996,-1.74424 -1.16773,-2.67632 -0.61299,-0.72524 -1.21691,-1.59646 -1.34204,-1.93601 -0.12513,-0.33954 -0.40061,-0.61736 -0.61218,-0.61736 -0.21157,0 -0.30619,-0.12696 -0.21028,-0.28215 0.0959,-0.15522 -0.14945,-0.48443 -0.54526,-0.73162 -0.59148,-0.36936 -0.6696,-0.36626 -0.43863,0.0176 0.19137,0.31803 0.0719,0.29821 -0.37438,-0.0622 -0.6145,-0.49614 -0.64032,-0.46863 -0.41377,0.44098 0.1688,0.67775 0.1067,0.96661 -0.20607,0.95839 -0.85526,-0.0222 -1.85903,-1.22901 -1.89782,-2.28131 -0.29212,-7.92533 -0.78057,-57.98509 -0.66383,-68.03372 0.16006,-13.77709 0.27133,-15.45287 1.06997,-16.1157 0.61092,-0.50701 2.05922,0.21407 1.79787,0.89512 -0.28381,0.7396 0.73383,1.35153 2.1585,1.29798 0.71098,-0.0267 1.65624,0.1896 2.10057,0.48074 0.95154,0.62347 1.06792,0.14595 0.30171,-1.23788 -0.41929,-0.75728 -0.40634,-0.92372 0.1007,-1.29445 0.53602,-0.39193 0.58186,-4.47809 0.58186,-51.86967 v -51.44423 l -1.4906,-0.31447 c -1.02133,-0.21547 -1.99311,-0.17377 -3.0868,0.13245 l -1.59621,0.44687 v 50.32288 c 0,45.13619 -0.057,50.4043 -0.55331,51.11284 -0.30431,0.43447 -0.70119,0.69855 -0.88194,0.58684 -0.20055,-0.12395 -0.32864,-20.06207 -0.32864,-51.15395 V 232.9551 l -1.26011,-0.5265 c -1.41085,-0.58949 -1.36701,-0.94982 0.1942,-1.59649 l 1.06591,-0.44152 v -50.7144 -50.7144 l -1.05834,-0.43838 c -0.58208,-0.24111 -1.05833,-0.59166 -1.05833,-0.779 0,-0.18734 0.47625,-0.52039 1.05833,-0.7401 l 1.05834,-0.39948 v -3.09259 c 0,-1.70093 -0.16143,-3.76956 -0.35872,-4.59696 -0.33554,-1.40715 -0.87981,-4.3453 -2.99069,-16.14465 -0.4686,-2.61937 -1.34151,-8.175625 -1.93979,-12.347222 -1.51888,-10.590668 -2.35003,-15.371731 -3.5429,-20.380148 -1.7469,-7.334552 -4.50512,-12.118669 -7.28783,-12.64071 -5.06198,-0.949633 -8.07354,3.551012 -11.6054,17.343727 -2.30071,8.984798 -2.82244,11.192415 -3.32984,14.089631 -0.30047,1.71565 -1.11651,4.751677 -2.29942,8.554861 -0.0754,0.242535 -0.30089,0.440972 -0.50101,0.440972 -0.45833,0 -0.48011,-1.297619 -0.0265,-1.577978 0.18555,-0.114678 0.27206,-0.40186 0.19223,-0.638182 -0.0798,-0.236319 -0.21626,-1.144048 -0.3032,-2.017173 -0.31088,-3.122317 -1.17124,-3.727891 -2.13009,-1.499306 -0.31306,0.727604 -0.72205,1.561042 -0.90887,1.852084 -0.36279,0.565167 -2.26576,4.707269 -2.88655,6.283024 -3.85345,9.78124 -3.87731,9.89016 -4.07608,18.60533 l -0.17742,7.77864 1.27124,0.39015 c 0.73624,0.22596 2.43835,0.31016 4.04449,0.20007 2.00561,-0.13747 2.8484,-0.0685 3.04471,0.24913 0.49195,0.79598 -0.65322,1.10595 -3.2886,0.89014 -1.56488,-0.12815 -3.06385,-0.0548 -3.79236,0.18566 l -1.20463,0.39757 v 50.54042 50.54041 l 1.36268,0.40827 c 0.81659,0.24466 2.22459,0.31819 3.51341,0.18348 1.42967,-0.14943 2.51812,-0.0726 3.24661,0.22914 0.99465,0.412 1.04486,0.50497 0.54346,1.00638 -0.42907,0.42907 -1.37568,0.55523 -4.23876,0.56495 -2.04918,0.007 -3.84831,0.17445 -4.05108,0.37715 -0.36781,0.36769 -0.593,101.43421 -0.22838,102.499 0.37476,1.09438 0.32262,1.60669 -0.27867,2.73791 -0.67519,1.27025 -0.60312,1.82158 0.12365,0.94588 0.75639,-0.9114 1.72185,-0.60537 3.40723,1.08001 0.88974,0.88973 1.49603,1.42083 1.34732,1.18021 -0.1669,-0.27006 -0.12544,-0.34791 0.10836,-0.20341 0.2083,0.12874 0.52516,0.9867 0.70413,1.90659 0.31484,1.6182 0.28472,15.90786 -0.0649,30.77669 -0.0935,3.97756 -0.16302,10.04975 -0.15446,13.49375 0.0113,4.55387 -0.097,6.2618 -0.39706,6.2618 -0.30146,0 -0.3932,1.59221 -0.34048,5.90903 0.0858,7.0298 -0.47276,17.66626 -1.03577,19.72194 -0.41031,1.49817 -1.85906,5.05453 -2.55085,6.26177 -0.21176,0.36953 -0.42901,1.00453 -0.48277,1.41111 -0.0538,0.40657 -0.20051,0.98495 -0.32612,1.28531 -0.38353,0.91708 1.20012,2.07052 2.98081,2.17103 0.86576,0.0489 1.92219,-0.0342 2.34763,-0.18496 0.60389,-0.21379 1.06807,-0.0113 2.11667,0.92315 1.56097,1.39114 3.15614,2.01115 5.18814,2.01662 2.92884,0.008 4.08964,0.37842 4.66384,1.48879 0.29646,0.5733 0.58819,0.98788 0.64828,0.92135 0.0601,-0.0665 -0.0246,-1.07347 -0.18819,-2.23764 z m -8.43976,-332.31668 c 0,-0.29104 0.15376,-0.52916 0.3417,-0.52916 0.18794,0 0.25033,0.23812 0.13865,0.52916 -0.11169,0.29104 -0.26545,0.52917 -0.34171,0.52917 -0.0762,0 -0.13864,-0.23813 -0.13864,-0.52917 z m 41.78239,130.0069 0.9061,-0.3445 -0.0894,-50.88069 -0.0894,-50.88069 -1.41111,-0.29379 c -0.88011,-0.18323 -2.04168,-0.14274 -3.08681,0.1076 l -1.67569,0.40138 v 50.71378 50.71379 l 1.14652,0.36779 c 1.50981,0.48433 3.17924,0.52135 4.29976,0.0953 z m -0.0445,-103.88077 0.99204,-0.22139 -0.0735,-7.26031 c -0.0824,-8.14486 -0.5954,-11.43832 -2.40941,-15.46943 -0.17463,-0.38805 -0.58343,-1.41993 -0.90844,-2.29305 -0.32502,-0.87313 -0.79448,-2.063753 -1.04324,-2.645836 -0.24876,-0.582084 -0.74196,-1.772709 -1.096,-2.645834 -0.86846,-2.141756 -2.27389,-4.586111 -2.63686,-4.586111 -0.16252,0 -0.39625,-0.3175 -0.51942,-0.705556 -0.12316,-0.388055 -0.39189,-0.705555 -0.59718,-0.705555 -0.35104,0 -0.22644,4.008042 0.21387,6.879167 0.0893,0.582083 0.49316,3.439585 0.89754,6.349995 0.40438,2.91042 0.81525,5.51338 0.91303,5.78436 0.39613,1.09775 1.18622,8.33283 0.99372,9.0998 -0.11369,0.45299 -0.0204,1.04812 0.20732,1.3225 0.31308,0.37723 0.31634,0.82772 0.0134,1.8475 -0.22037,0.74174 -0.34927,2.14237 -0.28644,3.11251 l 0.11423,1.76389 1.5875,0.40912 c 0.87312,0.22501 1.82562,0.35883 2.11667,0.29737 0.29104,-0.0615 0.97558,-0.21137 1.5212,-0.33314 z"
         style="fill:#565656;stroke-width:0.35277778" />
      <path
         id="path3876"
         d="m 125.33936,442.70019 c -5.93222,-1.59544 -5.48145,-8.34154 1.4896,-22.29263 5.33115,-10.6692 12.04802,-21.31385 25.21744,-39.96375 11.86483,-16.80239 31.53795,-41.96263 32.39632,-41.43213 0.25579,0.15809 0.3039,5.38468 0.15505,16.84339 -0.25597,19.70528 -1.2201,59.58693 -1.5034,62.18926 -0.22532,2.06965 0.24829,1.67453 -6.68028,5.57329 -2.1343,1.201 -8.21548,4.83246 -13.51373,8.06997 -8.64569,5.28292 -10.0922,6.04319 -14.11111,7.41666 -9.95692,3.40279 -19.00756,4.79065 -23.44989,3.59594 z m 156.90806,-0.51538 c -1.94028,-0.35641 -5.10686,-1.08077 -7.03685,-1.60969 -7.54622,-2.06805 -9.64793,-3.0432 -19.39214,-8.99767 -5.11524,-3.12578 -11.73698,-7.08374 -14.71497,-8.79542 -5.27226,-3.03036 -5.42132,-3.14826 -5.67233,-4.48744 -0.33169,-1.7696 -1.69493,-58.49959 -1.6925,-70.43159 0.002,-9.62402 0.0746,-10.00383 1.5761,-8.23928 3.94648,4.63794 20.45849,25.72142 24.75671,31.61081 14.84772,20.34421 26.38793,38.27442 32.04733,49.79243 5.80983,11.82416 6.63666,18.93345 2.43529,20.93902 -1.99706,0.95332 -7.75136,1.05566 -12.30664,0.21883 z m -75.50555,-0.005 c -1.27575,-0.55111 -3.23519,-3.06712 -4.04495,-5.19391 -0.51513,-1.35294 -0.85068,-3.17909 -0.96461,-5.24962 -0.16109,-2.92742 3.22945,-87.01053 3.64522,-90.39931 l 0.18396,-1.4993 h 2.81168 c 1.93822,0 2.85591,0.13699 2.95406,0.44097 0.20417,0.63231 5.20097,88.21219 5.17779,90.75209 -0.0365,3.99288 -1.47664,7.87654 -3.71998,10.03137 -1.09401,1.05086 -1.53185,1.22623 -3.29411,1.31961 -1.11781,0.0592 -2.3549,-0.0317 -2.74906,-0.2019 z"
         style="fill:#d60000;stroke-width:0.35277778" />
      <path
         id="path3874"
         d="m 125.33936,442.70019 c -5.93222,-1.59544 -5.48145,-8.34154 1.4896,-22.29263 5.33115,-10.6692 12.04802,-21.31385 25.21744,-39.96375 11.86483,-16.80239 31.53795,-41.96263 32.39632,-41.43213 0.25579,0.15809 0.3039,5.38468 0.15505,16.84339 -0.25597,19.70528 -1.2201,59.58693 -1.5034,62.18926 -0.22532,2.06965 0.24829,1.67453 -6.68028,5.57329 -2.1343,1.201 -8.21548,4.83246 -13.51373,8.06997 -8.64569,5.28292 -10.0922,6.04319 -14.11111,7.41666 -9.95692,3.40279 -19.00756,4.79065 -23.44989,3.59594 z m 8.03584,-0.21739 c 4.23105,-0.47953 9.94733,-1.86305 15.40799,-3.72925 3.90078,-1.33307 5.47762,-2.14439 12.34722,-6.35282 9.29994,-5.69729 13.41955,-8.37307 14.03766,-9.11786 0.38762,-0.46704 0.30909,-0.54306 -0.56287,-0.54476 -4.48378,-0.009 -7.00756,-3.00051 -11.00912,-13.0508 -4.29771,-10.79408 -7.10017,-21.12207 -7.37083,-27.16389 -0.10486,-2.3406 -0.0263,-4.61662 0.18553,-5.37986 0.202,-0.72761 0.24904,-1.32292 0.10453,-1.32292 -0.87512,0 -11.13713,14.2765 -18.32158,25.48894 -10.17261,15.87595 -15.98774,28.01479 -16.53397,34.51394 -0.50942,6.06125 2.40001,7.71504 11.71544,6.65928 z m 49.39722,-97.06144 c 0.79311,0.36136 0.84644,0.30571 1.05653,-1.10243 0.1217,-0.81566 0.17001,-2.17977 0.10737,-3.03135 l -0.1139,-1.54835 -2.02847,2.8226 c -1.11566,1.55244 -2.02847,2.91562 -2.02847,3.0293 0,0.11368 0.48863,0.0364 1.08583,-0.17183 0.77447,-0.26998 1.32535,-0.26939 1.92111,0.002 z m 99.475,96.76345 c -1.94028,-0.35641 -5.10686,-1.08077 -7.03685,-1.60969 -7.54622,-2.06805 -9.64793,-3.0432 -19.39214,-8.99767 -5.11524,-3.12578 -11.73698,-7.08374 -14.71497,-8.79542 -5.27226,-3.03036 -5.42132,-3.14826 -5.67233,-4.48744 -0.33169,-1.7696 -1.69493,-58.49959 -1.6925,-70.43159 0.002,-9.62402 0.0746,-10.00383 1.5761,-8.23928 3.94648,4.63794 20.45849,25.72142 24.75671,31.61081 14.84772,20.34421 26.38793,38.27442 32.04733,49.79243 5.80983,11.82416 6.63666,18.93345 2.43529,20.93902 -1.99706,0.95332 -7.75136,1.05566 -12.30664,0.21883 z m 11.96272,-0.41924 c 1.98195,-0.97427 2.5055,-2.15639 2.46311,-5.56136 -0.0305,-2.45188 -0.26786,-3.74273 -1.19872,-6.51983 -1.48174,-4.42048 -5.09404,-11.81566 -9.2176,-18.87037 -6.2071,-10.61935 -19.12931,-29.62345 -22.93541,-33.73006 l -1.6613,-1.79247 0.36193,1.5875 c 0.52218,2.29036 0.11231,7.68865 -0.92408,12.17083 -2.37779,10.28344 -7.86742,24.8744 -11.16906,29.68636 -1.25679,1.83172 -4.03451,3.29836 -6.24683,3.29836 -1.36745,0 -1.50529,0.0676 -1.10955,0.54448 0.61791,0.74454 5.75105,4.07151 14.89089,9.6513 8.00139,4.88477 10.47733,5.99976 17.74705,7.99203 5.93286,1.62589 10.1909,2.26833 14.2688,2.15283 2.29795,-0.0651 4.09389,-0.29651 4.73077,-0.6096 z m -57.29379,-97.2185 c 0.58161,0.11632 1.05746,0.0742 1.05746,-0.0937 0,-0.16784 -0.75406,-1.3148 -1.67569,-2.54882 l -1.6757,-2.24367 -0.11642,1.22537 c -0.064,0.67396 -0.0131,1.91438 0.11317,2.75649 0.19147,1.27677 0.31351,1.46149 0.73467,1.11196 0.29115,-0.24164 0.95292,-0.32959 1.56251,-0.20767 z m -30.17448,97.63238 c -1.27575,-0.55111 -3.23519,-3.06712 -4.04495,-5.19391 -0.51527,-1.35329 -0.85057,-3.17853 -0.96438,-5.24962 -0.20103,-3.65813 3.31598,-88.53788 3.75668,-90.66389 0.21629,-1.04344 0.25378,-0.67576 0.14388,1.41111 -0.47515,9.02217 -3.64229,85.38888 -3.64065,87.78406 0.004,5.22496 1.937,9.97762 4.62435,11.36728 1.27011,0.6568 3.60105,0.65024 4.88505,-0.0138 2.60377,-1.34648 4.5873,-6.07127 4.59555,-10.94673 0.002,-1.3601 -1.10706,-21.73524 -2.46525,-45.27801 -2.19,-37.96113 -2.6782,-47.65307 -2.2416,-44.50034 0.23407,1.69021 5.10022,87.33103 5.10145,89.78195 0.002,4.28089 -1.37802,8.14712 -3.70696,10.38415 -1.09401,1.05086 -1.53185,1.22622 -3.29411,1.3196 -1.11781,0.0592 -2.3549,-0.0318 -2.74906,-0.20189 z"
         style="fill:#ac0000;stroke-width:0.35277778" />
    </g>
  </g>
</svg>
